<svg width="256" height="256" viewBox="0 0 256 256" fill="none" xmlns="http://www.w3.org/2000/svg">
<rect width="256" height="256" rx="32" fill="black"/>
<path d="M199.417 83.0289V123.171C199.419 123.874 199.281 124.57 199.012 125.219C198.743 125.869 198.347 126.458 197.849 126.954C197.351 127.45 196.76 127.843 196.109 128.109C195.458 128.375 194.762 128.51 194.059 128.505C184.939 128.451 166.498 128.328 157.476 128.235C151.906 128.181 147.589 130.201 144.035 134.488C133.145 147.615 121.99 160.545 111.267 173.79C108.155 177.634 104.965 179.084 100.038 178.996C88.3079 178.79 65.8943 178.804 52.2416 178.834C51.2304 178.834 50.2401 178.546 49.3864 178.004C48.5326 177.462 47.8507 176.688 47.4203 175.773C46.9898 174.858 46.8286 173.839 46.9554 172.836C47.0822 171.833 47.4919 170.886 48.1365 170.107C67.089 147.458 103.549 103.963 110.318 95.9933C120.589 83.9188 133.691 77.8028 149.551 77.7193C164.3 77.6553 179.049 77.6898 194.078 77.7193C195.489 77.7205 196.842 78.2794 197.842 79.274C198.842 80.2687 199.408 81.6184 199.417 83.0289Z" fill="url(#paint0_linear_314_25)"/>
<path d="M169.546 143.412C169.728 143.161 169.977 142.965 170.265 142.848C170.552 142.73 170.866 142.695 171.173 142.746C171.479 142.797 171.765 142.932 171.999 143.137C172.232 143.341 172.404 143.607 172.496 143.903V143.938C173.97 148.967 178.808 153.702 185.185 155.978L185.332 156.032C185.661 156.151 185.944 156.37 186.142 156.658C186.34 156.946 186.443 157.289 186.436 157.638C186.429 157.988 186.312 158.326 186.103 158.606C185.893 158.886 185.602 159.093 185.268 159.198L184.472 159.449C177.215 161.75 170.411 166.46 166.891 171.489L166.517 172.02C166.335 172.271 166.086 172.467 165.798 172.584C165.511 172.702 165.197 172.737 164.89 172.686C164.584 172.635 164.298 172.5 164.064 172.295C163.831 172.091 163.659 171.825 163.567 171.528V171.494C162.093 166.465 157.255 161.73 150.878 159.454L150.726 159.4C150.397 159.281 150.114 159.061 149.917 158.773C149.719 158.485 149.617 158.142 149.625 157.792C149.632 157.443 149.749 157.104 149.959 156.825C150.169 156.545 150.461 156.338 150.795 156.234L151.586 155.983C158.897 153.707 165.682 148.972 169.211 143.943L169.546 143.412Z" fill="url(#paint1_linear_314_25)"/>
<defs>
<linearGradient id="paint0_linear_314_25" x1="195.529" y1="82.1587" x2="51.8188" y2="179.694" gradientUnits="userSpaceOnUse">
<stop stop-color="#FDF5A6"/>
<stop offset="0.3" stop-color="#FD6E50"/>
<stop offset="0.5" stop-color="#E82C69"/>
<stop offset="0.7" stop-color="#C32EA2"/>
<stop offset="1" stop-color="#7757D1"/>
</linearGradient>
<linearGradient id="paint1_linear_314_25" x1="221.959" y1="121.106" x2="78.2541" y2="218.642" gradientUnits="userSpaceOnUse">
<stop stop-color="#FDF5A6"/>
<stop offset="0.3" stop-color="#FD6E50"/>
<stop offset="0.5" stop-color="#E82C69"/>
<stop offset="0.7" stop-color="#C32EA2"/>
<stop offset="1" stop-color="#7757D1"/>
</linearGradient>
</defs>
</svg>
