<svg width="512" height="512" viewBox="0 0 512 512" fill="none" xmlns="http://www.w3.org/2000/svg">
<rect width="512" height="512" rx="64" fill="black"/>
<path d="M404.835 162.058V242.342C404.837 243.748 404.562 245.14 404.023 246.439C403.485 247.738 402.695 248.917 401.699 249.909C400.702 250.901 399.519 251.685 398.218 252.218C396.917 252.75 395.523 253.019 394.117 253.01C375.878 252.902 338.995 252.656 320.952 252.469C309.812 252.361 301.179 256.403 294.069 264.977C272.29 291.23 249.98 317.09 228.535 343.579C222.31 351.268 215.929 354.169 206.077 353.992C182.616 353.579 137.789 353.609 110.483 353.668C108.461 353.667 106.48 353.091 104.773 352.007C103.065 350.923 101.701 349.376 100.841 347.546C99.9796 345.716 99.6572 343.679 99.9108 341.672C100.164 339.666 100.984 337.773 102.273 336.214C140.178 290.915 213.097 203.925 226.637 187.987C247.177 163.838 273.382 151.606 305.102 151.439C334.6 151.311 364.098 151.38 394.156 151.439C396.978 151.441 399.683 152.559 401.684 154.548C403.684 156.537 404.817 159.237 404.835 162.058Z" fill="url(#paint0_linear_314_26)"/>
<path d="M345.091 282.824C345.457 282.321 345.954 281.931 346.529 281.695C347.104 281.46 347.733 281.39 348.345 281.492C348.958 281.594 349.53 281.865 349.997 282.273C350.464 282.682 350.809 283.213 350.991 283.807V283.876C353.941 293.935 363.616 303.403 376.369 307.956L376.664 308.064C377.322 308.302 377.888 308.739 378.284 309.315C378.68 309.891 378.886 310.577 378.872 311.276C378.857 311.975 378.625 312.652 378.206 313.212C377.787 313.771 377.203 314.186 376.536 314.396L374.944 314.898C360.431 319.5 346.822 328.919 339.782 338.978L339.035 340.04C338.669 340.542 338.172 340.933 337.597 341.168C337.022 341.404 336.393 341.474 335.781 341.372C335.168 341.27 334.596 340.999 334.129 340.59C333.662 340.181 333.317 339.65 333.135 339.057V338.988C330.185 328.929 320.51 319.46 307.757 314.908L307.452 314.8C306.795 314.561 306.229 314.123 305.834 313.546C305.438 312.969 305.234 312.283 305.249 311.584C305.265 310.885 305.498 310.208 305.918 309.649C306.338 309.09 306.923 308.677 307.59 308.467L309.173 307.966C323.794 303.413 337.363 293.944 344.423 283.886L345.091 282.824Z" fill="url(#paint1_linear_314_26)"/>
<defs>
<linearGradient id="paint0_linear_314_26" x1="397.057" y1="160.317" x2="109.638" y2="355.388" gradientUnits="userSpaceOnUse">
<stop stop-color="#FDF5A6"/>
<stop offset="0.3" stop-color="#FD6E50"/>
<stop offset="0.5" stop-color="#E82C69"/>
<stop offset="0.7" stop-color="#C32EA2"/>
<stop offset="1" stop-color="#7757D1"/>
</linearGradient>
<linearGradient id="paint1_linear_314_26" x1="449.918" y1="238.213" x2="162.508" y2="433.283" gradientUnits="userSpaceOnUse">
<stop stop-color="#FDF5A6"/>
<stop offset="0.3" stop-color="#FD6E50"/>
<stop offset="0.5" stop-color="#E82C69"/>
<stop offset="0.7" stop-color="#C32EA2"/>
<stop offset="1" stop-color="#7757D1"/>
</linearGradient>
</defs>
</svg>
